<?xml version="1.0" encoding="UTF-8" standalone="no"?>
<!-- Created with Inkscape (http://www.inkscape.org/) -->

<svg
   xmlns:dc="http://purl.org/dc/elements/1.1/"
   xmlns:cc="http://creativecommons.org/ns#"
   xmlns:rdf="http://www.w3.org/1999/02/22-rdf-syntax-ns#"
   xmlns:svg="http://www.w3.org/2000/svg"
   xmlns="http://www.w3.org/2000/svg"
   xmlns:sodipodi="http://sodipodi.sourceforge.net/DTD/sodipodi-0.dtd"
   xmlns:inkscape="http://www.inkscape.org/namespaces/inkscape"
   width="96.979012mm"
   height="36.711342mm"
   viewBox="0 0 343.62642 130.07956"
   id="svg3551"
   version="1.1"
   inkscape:version="0.91 r13725"
   sodipodi:docname="logo_upwit_vetorizado.svg">
  <defs
     id="defs3553" />
  <sodipodi:namedview
     id="base"
     pagecolor="#ffffff"
     bordercolor="#666666"
     borderopacity="1.0"
     inkscape:pageopacity="1"
     inkscape:pageshadow="2"
     inkscape:zoom="3.2739043"
     inkscape:cx="171.81321"
     inkscape:cy="65.039779"
     inkscape:document-units="px"
     inkscape:current-layer="layer1"
     showgrid="false"
     showguides="true"
     inkscape:guide-bbox="true"
     inkscape:window-width="1293"
     inkscape:window-height="741"
     inkscape:window-x="73"
     inkscape:window-y="27"
     inkscape:window-maximized="1"
     fit-margin-left="5"
     fit-margin-right="5"
     fit-margin-bottom="5"
     fit-margin-top="5" />
  <metadata
     id="metadata3556">
    <rdf:RDF>
      <cc:Work
         rdf:about="">
        <dc:format>image/svg+xml</dc:format>
        <dc:type
           rdf:resource="http://purl.org/dc/dcmitype/StillImage" />
        <dc:title></dc:title>
      </cc:Work>
    </rdf:RDF>
  </metadata>
  <g
     inkscape:label="Camada 1"
     inkscape:groupmode="layer"
     id="layer1"
     transform="translate(-201.50513,-406.83403)">
    <path
       style="fill:#000000;fill-opacity:1;fill-rule:evenodd;stroke:none;stroke-width:1px;stroke-linecap:butt;stroke-linejoin:miter;stroke-opacity:1"
       d="m 478.66699,424.55057 a 5.4375,5.4375 0 0 0 -5.4375,5.4375 5.4375,5.4375 0 0 0 5.4375,5.4375 5.4375,5.4375 0 0 0 5.4375,-5.4375 5.4375,5.4375 0 0 0 -5.4375,-5.4375 z m -126.18555,0.94922 c -11.87402,0 -13.07227,9.55932 -13.07227,28.08203 l 0,11.47266 -0.0879,0 0,19.54102 c 0,18.52271 1.19825,28.08203 13.07227,28.08203 l 1.44531,0 0,-7.42969 -1.3789,0 c -5.96279,0 -5.70899,-7.88929 -5.70899,-20.65234 l 0,-10.05665 0.0879,0 0,-20.95703 c 0,-12.76305 -0.25379,-20.65234 5.70899,-20.65234 l 1.3789,0 0,-7.42969 -1.44531,0 z m 87.60938,0 0,7.42969 1.3789,0 c 5.96278,0 5.70899,7.88929 5.70899,20.65234 l 0,20.95703 0.0879,0 0,10.05665 c 0,12.76305 0.2538,20.65234 -5.70899,20.65234 l -1.3789,0 0,7.42969 1.44531,0 c 11.87402,0 13.07226,-9.55932 13.07226,-28.08203 l 0,-19.54102 -0.0879,0 0,-11.47266 c 0,-18.52271 -1.19824,-28.08203 -13.07226,-28.08203 l -1.44531,0 z m 72.39062,2.85547 -8.67773,2.87695 0,13.6543 -7.7168,0 0,6.11524 7.7168,0 0,28.05859 -0.0547,4.33203 c 0,12.46317 6.65453,15.00391 13.59765,15.00391 5.49925,0 8.03948,-1.40151 10.06836,-2.33008 l 0,-5.92774 c -2.47529,1.29681 -3.86847,1.83279 -7.79297,2.04297 -3.2912,0.17626 -7.13867,-1.24285 -7.13867,-7.6289 l 0,-5.95703 -0.002,-27.59375 12.51367,0 0,-6.11524 -12.51367,0 0,-16.53125 z m -209.31445,15.69531 c -6.9524,0 -11.29038,2.06404 -15.21485,7.1543 l 0,-4.36914 0,-1.73438 -13.42187,0 0,6.11524 6.12305,0 0,5.4082 0,62.57227 8.49023,0 0,-21.32227 c 2.65466,0.44704 5.09997,0.74414 9.53125,0.74414 11.98357,0 25.99219,-4.82891 25.99219,-29.0664 0,-18.65256 -10.67246,-25.50196 -21.5,-25.50196 z m -83.94532,0.75391 0,33.57227 c -0.006,14.33971 7.07854,19.95898 19.46875,19.95898 6.32199,0 12.24497,-2.37072 15.23047,-6.44141 1.09498,4.02819 3.46965,6.04368 7.44922,6.04297 2.72164,-4.8e-4 4.78587,-0.71175 6.59961,-1.75976 l 0,-5.26563 c -1.14947,0.41293 -1.77741,0.59805 -3.04101,0.78516 -1.87403,0.27749 -3.05079,-1.57538 -3.05079,-3.36524 l 0,-26.58007 -0.0508,0 0,-16.94727 -8.49023,0 0,16.94727 -0.041,0 -0.13867,16.17773 c -0.0969,11.30554 -7.54796,13.64258 -13.08594,13.64258 -6.96543,0 -12.35937,-2.16538 -12.35937,-13.19531 l 0,-33.57227 -8.49024,0 z m 249.76368,0.082 0,6.11524 6.07226,0 0,3.54492 -0.1914,34.74609 c -0.031,5.6572 2.63261,9.32286 10.15039,8.50781 1.52145,-0.16495 3.3982,-0.91544 4.67578,-1.62304 l 0,-5.04492 c -1.14947,0.41293 -1.93172,0.66445 -3.19532,0.85156 -1.87403,0.27749 -2.89648,-1.37616 -2.89648,-3.16602 l 0,-43.93164 -1.19141,0 -13.42382,0 z m -106.75977,0.10156 17.9668,53.58399 7.07226,0 10.68555,-31.89063 10.48242,31.89063 7.07227,0 17.20312,-53.58399 -7.9414,0 -7.73243,24.53711 c -1.1682,3.84611 -4.07927,13.91582 -4.54687,19.13282 l -0.54102,0.002 c -0.55864,-5.20804 -3.65347,-15.26668 -4.88867,-19.0918 l -7.9375,-24.58008 -8.30078,0 3.75586,11.42774 -4.53125,13.10937 c -1.1682,3.84611 -4.09685,11.07207 -5.43945,19.13282 l -0.54102,0.002 c -0.55864,-5.20804 -4.0109,-15.26668 -5.24609,-19.0918 l -7.9375,-24.58008 -8.6543,0 z m -60.17383,5.35547 c 7.29349,0 14.05274,4.37621 14.05274,20.51953 0,17.14166 -7.36865,21.4961 -18.09961,21.4961 -2.84043,0 -6.19318,-0.4672 -8.86133,-1.22071 l 0,-25.76953 c 0,-11.22867 5.98235,-15.02539 12.9082,-15.02539 z"
       id="path5281"
       inkscape:connector-curvature="0" />
  </g>
</svg>
